<svg width="64" height="64" viewBox="0 0 64 64" fill="none" xmlns="http://www.w3.org/2000/svg">
<path fill-rule="evenodd" clip-rule="evenodd" d="M31.595 7.761C40.072 7.761 47.565 10.898 52.019 15.666L54.163 12.563C48.97 7.356 40.792 4 31.595 4C22.38 4 14.193 7.367 9 12.586L11.143 15.694C15.593 10.91 23.1 7.761 31.595 7.761ZM45.853 19.824C42.15 16.979 37.168 15.411 31.826 15.411C26.484 15.411 21.504 16.979 17.799 19.824C16.9569 20.4657 16.1808 21.1896 15.482 21.985L13.311 18.836C17.498 14.476 24.231 11.651 31.827 11.651C39.243 11.651 45.838 14.346 50.044 18.531L47.884 21.664C47.2596 20.9954 46.5796 20.3799 45.853 19.824ZM43.638 27.817C40.91 25.156 36.483 23.387 31.595 23.387C26.69 23.387 22.248 25.167 19.521 27.845L17.366 24.718C20.774 21.605 25.883 19.626 31.595 19.626C37.29 19.626 42.388 21.596 45.795 24.696L43.638 27.817ZM13.325 31.839H49.095C50.567 31.839 51.862 33.066 51.862 34.562V58.256C51.862 59.742 50.567 60.923 49.095 60.923H13.326C11.86 60.923 10.716 59.743 10.716 58.255V34.563C10.716 33.067 11.86 31.84 13.326 31.84L13.325 31.839ZM22.1 49.23C19.589 49.23 17.55 47.152 17.55 44.607C17.55 42.049 19.589 39.977 22.1 39.977C24.615 39.977 26.653 42.047 26.653 44.607C26.653 47.152 24.615 49.228 22.1 49.228V49.23ZM35.82 44.607C35.82 47.152 37.862 49.229 40.383 49.229C42.898 49.229 44.937 47.152 44.937 44.607C44.937 42.047 42.898 39.977 40.383 39.977C37.863 39.977 35.82 42.049 35.82 44.607Z" fill="#E03131"/>
</svg>
